<svg width="776" height="776" viewBox="0 0 776 776" fill="none" xmlns="http://www.w3.org/2000/svg">
<rect width="776" height="776" rx="76" fill="#1E1E1E"/>
<g filter="url(#filter0_i_489_111)">
<mask id="path-2-outside-1_489_111" maskUnits="userSpaceOnUse" x="114" y="144" width="420" height="488" fill="black">
<rect fill="white" x="114" y="144" width="420" height="488"/>
<path d="M286.772 164.199C304.578 158.455 322.344 155.368 341.667 156.109L343.542 156.193L343.579 156.195L343.615 156.197C358.779 157.043 372.531 162.207 383.133 171.684C393.438 180.895 399.933 193.44 402.227 207.864L402.436 209.266L402.455 209.404L402.471 209.542C405.012 230.685 401.295 250.458 396.865 268.159L395.971 271.672C395.367 274.01 394.854 276.483 394.239 279.401C393.659 282.148 392.976 285.357 392.113 288.418L392.112 288.417C390.705 293.494 387.523 296.609 385.559 298.193C384.549 299.007 383.609 299.619 383.043 299.977C381.94 300.675 382.568 300.26 382.035 300.605H367.5L363.78 299.077C363.761 299.062 363.74 299.046 363.718 299.029C363.459 298.825 362.698 298.234 361.945 297.567C361.231 296.933 359.923 295.715 358.717 294C357.74 292.611 356.174 289.974 355.725 286.358C354.874 280.99 355.998 275.882 356.384 274.011L356.412 273.875L356.443 273.741C359.86 258.622 363.387 244.557 365.157 230.86L365.198 230.546L365.251 230.235C366.207 224.685 365.627 217.737 364.043 211.225L363.946 210.824L363.871 210.417C362.787 204.576 360.401 200.936 357.464 198.539C354.391 196.032 349.555 193.958 342.191 193.437L341.979 193.422L341.769 193.402C326.71 191.907 311.8 195.564 294.791 201.347C262.202 212.588 232.369 230 203.232 250.14C192.161 257.858 181.418 266.935 170.038 276.572C174.639 277.93 179.282 279.123 184.077 280.157C209.115 285.09 235.019 289.743 260.299 295.74C280.309 300.116 298.32 307.763 315.156 318.086L316.786 319.097L317.006 319.235L317.222 319.38C345.537 338.509 362.592 364.934 367.5 398.389C372.17 426.663 368.421 453.899 363.127 479.511L363.106 479.611C362.196 483.868 361.215 488.112 360.167 492.341C382.739 468.686 406.681 446.123 431.37 424.65C449.337 408.636 468.62 393.204 486.461 378.164C487.197 377.454 488.634 376.112 490.345 374.966C492.33 373.637 495.28 372.133 499.056 371.697C502.046 371.167 504.718 371.433 506.5 371.756C508.789 372.171 511.481 373.02 514.039 374.563L514.548 374.881L517.908 377.048L519.743 380.6C521.796 384.574 521.59 388.293 521.487 389.586C521.355 391.24 521.018 392.645 520.822 393.405C520.61 394.224 520.365 395.023 520.238 395.441C520.144 395.751 520.088 395.941 520.052 396.065C519.688 397.586 519.096 399.037 518.298 400.367C516.987 402.556 515.398 403.973 514.276 404.808C513.606 405.306 512.935 405.713 512.343 406.034C492.331 422.68 472.801 438.527 453.612 455.327C422.322 482.896 392.193 511.621 364.947 542.447C346.192 564.228 328.421 585.883 313.491 609.526L313.49 609.525C312.679 610.833 310.33 614.574 306.234 617.139C303.783 618.674 300.45 619.964 296.451 619.916C293.064 619.876 290.12 618.884 287.733 617.566C285.373 616.408 282.803 614.59 280.759 611.747C278.272 608.288 277.438 604.53 277.438 601.345C277.438 596.082 279.78 591.739 280.408 590.524L280.435 590.47L280.463 590.417C292.447 567.671 302.97 544.629 311.638 520.365C320.424 494.85 327.558 469.173 330.216 443.445L330.22 443.406C332.002 426.59 331.895 411.134 328.208 396.072L328.198 396.028L328.188 395.985C322.358 371.538 307.108 354.753 282.616 343.093L280.95 342.319C263.675 334.414 244.452 329.422 224.8 325.533C214.591 323.512 204.476 321.71 194.197 319.881C183.962 318.06 173.564 316.21 163.024 314.123L162.715 314.062L162.41 313.989C155.374 312.286 148.362 309.47 142.371 305.992L142.254 305.924L142.14 305.855C136.168 302.243 130.791 296.819 128.333 289.287C125.829 281.612 127.063 273.914 130.283 267.293L130.362 267.129L130.446 266.967C134.07 259.954 138.849 253.636 144.659 248.014C159.489 233.212 176.584 221.601 193.138 211.071C222.069 191.948 252.534 175.243 286.772 164.199Z"/>
</mask>
<path d="M286.772 164.199C304.578 158.455 322.344 155.368 341.667 156.109L343.542 156.193L343.579 156.195L343.615 156.197C358.779 157.043 372.531 162.207 383.133 171.684C393.438 180.895 399.933 193.44 402.227 207.864L402.436 209.266L402.455 209.404L402.471 209.542C405.012 230.685 401.295 250.458 396.865 268.159L395.971 271.672C395.367 274.01 394.854 276.483 394.239 279.401C393.659 282.148 392.976 285.357 392.113 288.418L392.112 288.417C390.705 293.494 387.523 296.609 385.559 298.193C384.549 299.007 383.609 299.619 383.043 299.977C381.94 300.675 382.568 300.26 382.035 300.605H367.5L363.78 299.077C363.761 299.062 363.74 299.046 363.718 299.029C363.459 298.825 362.698 298.234 361.945 297.567C361.231 296.933 359.923 295.715 358.717 294C357.74 292.611 356.174 289.974 355.725 286.358C354.874 280.99 355.998 275.882 356.384 274.011L356.412 273.875L356.443 273.741C359.86 258.622 363.387 244.557 365.157 230.86L365.198 230.546L365.251 230.235C366.207 224.685 365.627 217.737 364.043 211.225L363.946 210.824L363.871 210.417C362.787 204.576 360.401 200.936 357.464 198.539C354.391 196.032 349.555 193.958 342.191 193.437L341.979 193.422L341.769 193.402C326.71 191.907 311.8 195.564 294.791 201.347C262.202 212.588 232.369 230 203.232 250.14C192.161 257.858 181.418 266.935 170.038 276.572C174.639 277.93 179.282 279.123 184.077 280.157C209.115 285.09 235.019 289.743 260.299 295.74C280.309 300.116 298.32 307.763 315.156 318.086L316.786 319.097L317.006 319.235L317.222 319.38C345.537 338.509 362.592 364.934 367.5 398.389C372.17 426.663 368.421 453.899 363.127 479.511L363.106 479.611C362.196 483.868 361.215 488.112 360.167 492.341C382.739 468.686 406.681 446.123 431.37 424.65C449.337 408.636 468.62 393.204 486.461 378.164C487.197 377.454 488.634 376.112 490.345 374.966C492.33 373.637 495.28 372.133 499.056 371.697C502.046 371.167 504.718 371.433 506.5 371.756C508.789 372.171 511.481 373.02 514.039 374.563L514.548 374.881L517.908 377.048L519.743 380.6C521.796 384.574 521.59 388.293 521.487 389.586C521.355 391.24 521.018 392.645 520.822 393.405C520.61 394.224 520.365 395.023 520.238 395.441C520.144 395.751 520.088 395.941 520.052 396.065C519.688 397.586 519.096 399.037 518.298 400.367C516.987 402.556 515.398 403.973 514.276 404.808C513.606 405.306 512.935 405.713 512.343 406.034C492.331 422.68 472.801 438.527 453.612 455.327C422.322 482.896 392.193 511.621 364.947 542.447C346.192 564.228 328.421 585.883 313.491 609.526L313.49 609.525C312.679 610.833 310.33 614.574 306.234 617.139C303.783 618.674 300.45 619.964 296.451 619.916C293.064 619.876 290.12 618.884 287.733 617.566C285.373 616.408 282.803 614.59 280.759 611.747C278.272 608.288 277.438 604.53 277.438 601.345C277.438 596.082 279.78 591.739 280.408 590.524L280.435 590.47L280.463 590.417C292.447 567.671 302.97 544.629 311.638 520.365C320.424 494.85 327.558 469.173 330.216 443.445L330.22 443.406C332.002 426.59 331.895 411.134 328.208 396.072L328.198 396.028L328.188 395.985C322.358 371.538 307.108 354.753 282.616 343.093L280.95 342.319C263.675 334.414 244.452 329.422 224.8 325.533C214.591 323.512 204.476 321.71 194.197 319.881C183.962 318.06 173.564 316.21 163.024 314.123L162.715 314.062L162.41 313.989C155.374 312.286 148.362 309.47 142.371 305.992L142.254 305.924L142.14 305.855C136.168 302.243 130.791 296.819 128.333 289.287C125.829 281.612 127.063 273.914 130.283 267.293L130.362 267.129L130.446 266.967C134.07 259.954 138.849 253.636 144.659 248.014C159.489 233.212 176.584 221.601 193.138 211.071C222.069 191.948 252.534 175.243 286.772 164.199Z" fill="white"/>
<path d="M286.772 164.199C304.578 158.455 322.344 155.368 341.667 156.109L343.542 156.193L343.579 156.195L343.615 156.197C358.779 157.043 372.531 162.207 383.133 171.684C393.438 180.895 399.933 193.44 402.227 207.864L402.436 209.266L402.455 209.404L402.471 209.542C405.012 230.685 401.295 250.458 396.865 268.159L395.971 271.672C395.367 274.01 394.854 276.483 394.239 279.401C393.659 282.148 392.976 285.357 392.113 288.418L392.112 288.417C390.705 293.494 387.523 296.609 385.559 298.193C384.549 299.007 383.609 299.619 383.043 299.977C381.94 300.675 382.568 300.26 382.035 300.605H367.5L363.78 299.077C363.761 299.062 363.74 299.046 363.718 299.029C363.459 298.825 362.698 298.234 361.945 297.567C361.231 296.933 359.923 295.715 358.717 294C357.74 292.611 356.174 289.974 355.725 286.358C354.874 280.99 355.998 275.882 356.384 274.011L356.412 273.875L356.443 273.741C359.86 258.622 363.387 244.557 365.157 230.86L365.198 230.546L365.251 230.235C366.207 224.685 365.627 217.737 364.043 211.225L363.946 210.824L363.871 210.417C362.787 204.576 360.401 200.936 357.464 198.539C354.391 196.032 349.555 193.958 342.191 193.437L341.979 193.422L341.769 193.402C326.71 191.907 311.8 195.564 294.791 201.347C262.202 212.588 232.369 230 203.232 250.14C192.161 257.858 181.418 266.935 170.038 276.572C174.639 277.93 179.282 279.123 184.077 280.157C209.115 285.09 235.019 289.743 260.299 295.74C280.309 300.116 298.32 307.763 315.156 318.086L316.786 319.097L317.006 319.235L317.222 319.38C345.537 338.509 362.592 364.934 367.5 398.389C372.17 426.663 368.421 453.899 363.127 479.511L363.106 479.611C362.196 483.868 361.215 488.112 360.167 492.341C382.739 468.686 406.681 446.123 431.37 424.65C449.337 408.636 468.62 393.204 486.461 378.164C487.197 377.454 488.634 376.112 490.345 374.966C492.33 373.637 495.28 372.133 499.056 371.697C502.046 371.167 504.718 371.433 506.5 371.756C508.789 372.171 511.481 373.02 514.039 374.563L514.548 374.881L517.908 377.048L519.743 380.6C521.796 384.574 521.59 388.293 521.487 389.586C521.355 391.24 521.018 392.645 520.822 393.405C520.61 394.224 520.365 395.023 520.238 395.441C520.144 395.751 520.088 395.941 520.052 396.065C519.688 397.586 519.096 399.037 518.298 400.367C516.987 402.556 515.398 403.973 514.276 404.808C513.606 405.306 512.935 405.713 512.343 406.034C492.331 422.68 472.801 438.527 453.612 455.327C422.322 482.896 392.193 511.621 364.947 542.447C346.192 564.228 328.421 585.883 313.491 609.526L313.49 609.525C312.679 610.833 310.33 614.574 306.234 617.139C303.783 618.674 300.45 619.964 296.451 619.916C293.064 619.876 290.12 618.884 287.733 617.566C285.373 616.408 282.803 614.59 280.759 611.747C278.272 608.288 277.438 604.53 277.438 601.345C277.438 596.082 279.78 591.739 280.408 590.524L280.435 590.47L280.463 590.417C292.447 567.671 302.97 544.629 311.638 520.365C320.424 494.85 327.558 469.173 330.216 443.445L330.22 443.406C332.002 426.59 331.895 411.134 328.208 396.072L328.198 396.028L328.188 395.985C322.358 371.538 307.108 354.753 282.616 343.093L280.95 342.319C263.675 334.414 244.452 329.422 224.8 325.533C214.591 323.512 204.476 321.71 194.197 319.881C183.962 318.06 173.564 316.21 163.024 314.123L162.715 314.062L162.41 313.989C155.374 312.286 148.362 309.47 142.371 305.992L142.254 305.924L142.14 305.855C136.168 302.243 130.791 296.819 128.333 289.287C125.829 281.612 127.063 273.914 130.283 267.293L130.362 267.129L130.446 266.967C134.07 259.954 138.849 253.636 144.659 248.014C159.489 233.212 176.584 221.601 193.138 211.071C222.069 191.948 252.534 175.243 286.772 164.199Z" stroke="white" stroke-width="24" stroke-linecap="square" stroke-linejoin="round" mask="url(#path-2-outside-1_489_111)"/>
<path d="M557.225 360.099C559.826 359.211 563.367 358.578 567.265 359.341C567.295 359.347 567.324 359.353 567.354 359.359L567.964 359.493C567.992 359.499 568.02 359.505 568.048 359.512L568.412 359.6L568.699 359.681L569.053 359.795L569.54 359.961C574.49 361.732 577.325 365.453 578.6 367.51C580.017 369.795 581.383 373.042 581.562 376.851L581.649 378.045C581.84 380.823 581.948 383.54 582.046 386.026C582.16 388.894 582.265 391.471 582.457 393.996C582.625 395.218 582.862 396.483 583.157 397.721C587.023 396.37 590.881 394.962 594.846 393.513C600.11 391.588 605.568 389.591 611.174 387.703C616.23 385.924 621.902 383.924 627.676 382.4L627.682 382.399L627.783 382.373L627.845 382.356L627.945 382.332L627.957 382.329C629.176 382.034 633.86 380.675 639.142 381.648L639.655 381.75L639.713 381.763L640.147 381.861L640.201 381.874L641.241 382.126L641.446 382.182C641.649 382.243 641.848 382.32 642.04 382.412L643.003 382.878L643.005 382.879C645.195 383.938 646.736 385.347 647.362 385.938C648.21 386.74 648.979 387.598 649.635 388.424C650.272 389.225 651.028 390.278 651.703 391.509H651.704C652.058 392.155 653.737 395.134 653.737 399.132L653.725 399.736C653.609 402.719 652.66 405.059 652.037 406.355C651.282 407.925 650.366 409.268 649.486 410.352C648.144 412.004 645.284 415.027 640.935 416.493C640.913 416.501 640.891 416.511 640.869 416.519C633.914 418.839 626.975 421.039 620.154 423.201C613.299 425.374 606.561 427.51 599.84 429.753L599.595 429.835C599.526 429.858 599.457 429.879 599.387 429.898L599.139 429.966C598.165 430.235 597.189 430.59 595.577 431.19C594.168 431.715 592.184 432.458 589.968 433.085C589.956 433.089 589.944 433.094 589.932 433.098C589.902 433.107 589.876 433.114 589.858 433.119C589.849 433.122 589.841 433.123 589.834 433.125L589.833 433.126C589.826 433.128 589.809 433.133 589.79 433.139C589.769 433.145 589.741 433.152 589.708 433.161C589.703 433.163 589.697 433.163 589.692 433.164C581.901 435.411 573.508 435.49 565.833 431.72C562.084 429.877 558.972 427.343 556.44 424.37C534.99 468.803 519.912 515.456 509.359 563.901C509.133 566.878 508.423 569.741 508.201 570.814L508.011 571.739C507.96 571.986 507.887 572.227 507.791 572.459L507.43 573.331H507.429C506.668 575.173 505.083 578.542 501.86 581.342L501.542 581.61C497.443 585.011 492.26 586.291 487.075 585.455C481.484 584.553 476.758 581.274 474.154 576.235C472.089 572.239 472.002 568.297 472.002 566.614V565.88C472.002 565.684 472.017 565.488 472.045 565.294L472.153 564.568C473.091 558.215 474.029 551.861 474.967 545.508C477.797 523.836 480.741 502.055 483.682 480.312C486.63 458.516 489.573 436.756 492.398 415.117C492.767 412.249 492.873 409.276 492.995 405.574C493.103 402.262 493.228 398.218 493.75 394.15C494.018 390.559 495.325 387.496 496.681 385.308C497.963 383.24 500.811 379.504 505.794 377.74C505.801 377.738 505.808 377.735 505.815 377.732C505.828 377.728 505.841 377.723 505.854 377.719C512.277 375.381 518.251 376.927 522.52 380.451C526.677 383.883 529.241 389.194 529.241 394.568L529.247 395.339C529.259 396.28 529.286 397.402 529.312 398.651C533.791 389.998 538.418 381.53 543.065 373.202C543.706 371.986 544.568 370.487 545.622 369.004C546.461 367.822 548.011 365.796 550.288 364.044C552.364 362.27 554.762 360.94 557.225 360.099Z" fill="white" stroke="white" stroke-width="8" stroke-linejoin="round"/>
<ellipse cx="512.503" cy="319.699" rx="36.4" ry="34.2185" fill="white"/>
</g>
<defs>
<filter id="filter0_i_489_111" x="114.998" y="144" width="542.739" height="506.918" filterUnits="userSpaceOnUse" color-interpolation-filters="sRGB">
<feFlood flood-opacity="0" result="BackgroundImageFix"/>
<feBlend mode="normal" in="SourceGraphic" in2="BackgroundImageFix" result="shape"/>
<feColorMatrix in="SourceAlpha" type="matrix" values="0 0 0 0 0 0 0 0 0 0 0 0 0 0 0 0 0 0 127 0" result="hardAlpha"/>
<feOffset dy="23"/>
<feGaussianBlur stdDeviation="9.5"/>
<feComposite in2="hardAlpha" operator="arithmetic" k2="-1" k3="1"/>
<feColorMatrix type="matrix" values="0 0 0 0 0 0 0 0 0 0 0 0 0 0 0 0 0 0 0.25 0"/>
<feBlend mode="normal" in2="shape" result="effect1_innerShadow_489_111"/>
</filter>
</defs>
</svg>
