<svg width="512" height="512" viewBox="0 0 512 512" fill="none" xmlns="http://www.w3.org/2000/svg">
<rect width="512" height="512" rx="80" fill="#D7CCC8"/>
<g filter="url(#filter0_d_27_35)">
<path d="M200.431 411.299C210.894 394.183 223.304 378.571 236.236 363.051C255.16 340.924 276.051 320.347 297.676 300.658C307.701 291.588 317.878 282.893 328.175 274.094C331.626 271.145 335.091 268.185 338.568 265.195C338.885 265.038 339.302 264.804 339.714 264.487C340.179 264.13 340.81 263.543 341.324 262.657C341.655 262.085 341.894 261.464 342.029 260.817C342.071 260.665 342.126 260.478 342.202 260.217L342.214 260.178C342.307 259.86 342.439 259.412 342.551 258.965C342.662 258.522 342.816 257.839 342.875 257.078C342.922 256.462 342.993 254.916 342.178 253.285C341.711 252.351 341.008 251.555 340.139 250.976C338.847 250.115 337.401 249.62 336.132 249.382C335.154 249.198 333.781 249.073 332.315 249.369C330.503 249.565 329.075 250.307 328.081 250.995C327.138 251.648 326.34 252.435 325.895 252.882C321.815 256.437 317.658 259.995 313.478 263.573C304.925 270.894 296.275 278.299 287.983 285.934C266.53 305.213 245.928 325.707 227.036 347.419C229.761 338.54 232.079 329.547 233.956 320.475L233.964 320.436C237.574 302.388 240.014 283.713 236.935 264.487C233.768 242.073 222.788 224.392 204.252 211.451C204.226 211.434 204.201 211.416 204.175 211.399C204.142 211.377 204.109 211.355 204.077 211.334C192.53 203.862 180.213 198.371 166.488 195.276C153.26 192.033 139.806 189.351 126.458 186.691C122.329 185.868 118.209 185.047 114.109 184.213C108.591 182.984 103.362 181.45 98.107 179.6C98.0284 179.568 97.9546 179.536 97.8855 179.505C97.9745 179.319 98.0835 179.108 98.2161 178.872C99.957 176.09 100.961 174.655 102.065 173.867C102.226 173.752 102.381 173.629 102.529 173.5C110.357 166.65 117.929 160.031 125.768 154.386C145.99 139.942 166.89 127.313 189.836 119.139C201.664 114.984 212.622 112.128 223.898 113.285C223.956 113.291 224.014 113.296 224.073 113.3C229.766 113.717 233.989 115.409 236.952 117.908C239.875 120.372 242.023 123.997 242.948 129.148C242.966 129.254 242.988 129.359 243.013 129.463C244.197 134.496 244.71 140.143 243.908 144.953C243.895 145.034 243.883 145.115 243.873 145.196C242.835 153.499 240.941 162.002 239.006 170.687C238.603 172.497 238.198 174.315 237.799 176.141C237.791 176.176 237.784 176.211 237.777 176.246C237.488 177.688 236.916 180.555 237.378 183.387C237.549 184.912 238.191 186.059 238.64 186.718C239.179 187.51 239.786 188.103 240.174 188.459C240.545 188.8 240.927 189.109 241.146 189.286L241.195 189.327C241.347 189.45 241.415 189.508 241.433 189.523C243.458 191.484 246.583 191.774 248.936 190.205L248.943 190.2C249.049 190.134 250.215 189.413 250.99 188.767C251.994 187.931 253.406 186.456 254.005 184.149C254.545 182.162 254.982 180.049 255.381 178.095C255.411 177.947 255.441 177.8 255.471 177.653C255.852 175.786 256.206 174.048 256.621 172.387C259.9 159.274 262.734 145.082 260.98 129.992C260.976 129.956 260.971 129.92 260.966 129.885C259.667 120.235 255.613 112.001 249.151 106.033C242.691 100.066 234.18 96.6896 224.531 96.133L224.501 96.1313C211.286 95.4357 199.17 97.5375 186.911 101.624C163.821 109.32 143.202 120.988 123.475 134.464C112.08 141.954 100.606 150.025 90.7285 160.234C87.0683 163.902 84.0951 167.98 81.8515 172.468C81.8302 172.51 81.8094 172.553 81.7891 172.596C79.9837 176.433 79.413 180.597 80.6851 184.626C81.945 188.615 84.7645 191.688 88.2574 193.871C88.2882 193.89 88.3192 193.909 88.3504 193.928C92.1106 196.184 96.5563 198.032 101.018 199.148C101.101 199.169 101.186 199.188 101.27 199.205C108.47 200.678 115.578 201.985 122.62 203.28L122.647 203.285C129.715 204.585 136.716 205.873 143.789 207.319C157.874 210.2 171.907 213.973 184.546 220.137C202.334 228.882 213.939 241.817 218.34 260.888L218.347 260.922C221.059 272.37 221.099 283.974 219.84 296.252L219.839 296.267C217.956 315.097 212.919 333.758 206.82 352.06C200.763 369.588 193.419 386.197 185.085 402.545L185.064 402.587C184.603 403.508 183.538 405.641 183.538 408.069C183.538 409.489 183.893 411.137 184.958 412.667C185.868 413.976 187.056 414.85 188.226 415.428C189.375 416.101 190.767 416.59 192.35 416.61C194.17 416.632 195.687 416.027 196.814 415.298C198.764 414.036 199.931 412.133 200.431 411.299Z" fill="#616161" stroke="#616161" stroke-width="12" stroke-linecap="square" stroke-linejoin="round"/>
<path d="M330.673 377.088C338.83 338.239 350.918 300.875 368.754 265.485C369.003 266.555 369.274 267.622 369.574 268.672C369.6 268.762 369.629 268.852 369.661 268.94C371.207 273.192 373.802 276.65 377.573 278.564C381.345 280.479 385.69 280.544 390.131 279.199C391.426 278.827 392.61 278.372 393.622 277.983L393.681 277.96C394.758 277.546 395.651 277.205 396.589 276.937C396.658 276.917 396.727 276.896 396.795 276.872C401.467 275.261 406.144 273.729 410.855 272.186L410.87 272.181C415.562 270.644 420.288 269.096 425.019 267.464C426.584 266.934 427.741 265.739 428.375 264.932C428.753 264.451 429.12 263.887 429.408 263.267C429.673 262.698 430 261.811 430 260.757C430 259.548 429.497 258.581 429.32 258.248C429.056 257.75 428.738 257.286 428.44 256.898C428.137 256.504 427.79 256.106 427.425 255.75C427.127 255.459 426.568 254.946 425.841 254.583C425.58 254.452 425.306 254.351 425.023 254.28C422.727 253.706 420.555 254.258 419.385 254.555C419.316 254.572 419.25 254.589 419.188 254.605C419.173 254.608 419.159 254.612 419.144 254.616C419.131 254.619 419.118 254.623 419.105 254.626C415.376 255.643 411.676 256.989 408.158 258.268L408.106 258.287C404.333 259.6 400.649 260.991 397.022 262.362L396.998 262.371C393.363 263.744 389.785 265.096 386.136 266.366C384.605 266.827 384.031 266.618 383.886 266.55C383.742 266.482 383.245 266.187 382.657 264.8C381.837 262.593 381.265 260.053 380.971 257.757C380.82 255.769 380.743 253.766 380.663 251.678L380.661 251.642C380.583 249.594 380.501 247.462 380.338 245.316C380.297 243.839 379.774 242.475 379.162 241.457C378.589 240.5 377.463 239.064 375.659 238.462C375.561 238.43 375.463 238.401 375.364 238.376C373.754 237.974 372.201 238.221 370.993 238.647C369.882 239.039 368.819 239.666 367.937 240.471C366.978 241.202 366.258 242.139 365.783 242.831C365.213 243.659 364.726 244.539 364.354 245.278C355.889 260.955 347.641 277.093 341.154 294.478C342.133 286.367 343.077 278.246 343.955 270.058C344.489 266.752 344.414 263.137 344.351 260.087C344.332 259.169 344.314 258.303 344.314 257.511C344.314 255.422 343.431 253.422 341.798 252.116C340.146 250.794 337.865 250.329 335.681 251.163C333.947 251.787 332.86 253.18 332.299 254.115C331.706 255.103 331.196 256.416 331.128 257.843C330.798 260.422 330.715 263.043 330.638 265.48L330.636 265.539C330.554 268.126 330.476 270.535 330.178 272.916C328.232 288.322 326.205 303.811 324.176 319.309L324.176 319.314C322.149 334.798 320.121 350.293 318.174 365.708L316.231 379.308C316.204 379.496 316.191 379.685 316.191 379.874C316.191 380.829 316.262 382.421 317.019 383.935C317.925 385.747 319.589 387.02 321.805 387.39C323.901 387.739 325.836 387.2 327.338 385.913C328.64 384.797 329.34 383.349 329.747 382.333C329.838 382.106 329.907 381.872 329.955 381.632C329.997 381.425 330.043 381.204 330.091 380.973C330.327 379.848 330.617 378.468 330.673 377.088Z" fill="#616161" stroke="#616161" stroke-width="8" stroke-linejoin="round"/>
<ellipse cx="341" cy="207.758" rx="25.0526" ry="24.3368" fill="#616161"/>
</g>
<defs>
<filter id="filter0_d_27_35" x="73.998" y="90" width="376.002" height="348.61" filterUnits="userSpaceOnUse" color-interpolation-filters="sRGB">
<feFlood flood-opacity="0" result="BackgroundImageFix"/>
<feColorMatrix in="SourceAlpha" type="matrix" values="0 0 0 0 0 0 0 0 0 0 0 0 0 0 0 0 0 0 127 0" result="hardAlpha"/>
<feOffset dx="8" dy="8"/>
<feGaussianBlur stdDeviation="4"/>
<feColorMatrix type="matrix" values="0 0 0 0 0 0 0 0 0 0 0 0 0 0 0 0 0 0 0.2 0"/>
<feBlend mode="normal" in2="BackgroundImageFix" result="effect1_dropShadow_27_35"/>
<feBlend mode="normal" in="SourceGraphic" in2="effect1_dropShadow_27_35" result="shape"/>
</filter>
</defs>
</svg>
